{"title":"12.Dates.of.Christmas.2011.HDTV.XviD-NoGRP","uid":6907951,"size":745819556,"categoryP":"video","categoryS":"movies","magnet":"?xt=urn:btih:ac3bfa1379ec90aa73aeea37333184e6c6560169&amp;dn=12.Dates.of.Christmas.2011.HDTV.XviD-NoGRP&amp;tr=udp%3A%2F%2Ftracker.openbittorrent.com%3A80&amp;tr=udp%3A%2F%2Fopen.demonii.com%3A1337&amp;tr=udp%3A%2F%2Ftracker.coppersurfer.tk%3A6969&amp;tr=udp%3A%2F%2Fexodus.desync.com%3A6969","seeders":0,"leechers":2,"uploader":"TvTeam","files":5,"time":1324668584,"description":". \n &lt;a href=&quot;\nhttp://www.torrenting.com&quot; rel=&quot;nofollow&quot; target=&quot;_NEW&quot;&gt;\nhttp://www.torrenting.com&lt;/a&gt;          :     Once &amp; For all ;)\n\n\n               www . Torrenting . Com \n\n(((((((((((((= Enjoy No RAR releases =))))))))))))))))))))\n\n\n...................................NFO:....................................\n\n.http://www.imdb.com/title/tt1846442/\n\nGeneral\nComplete name                    : 12.Dates.of.Christmas.2011.HDTV.XviD-NoGRP.avi\nFormat                           : AVI\nFormat/Info                      : Audio Video Interleave\nFile size                        : 702 MiB\nDuration                         : 1h 25mn\nOverall bit rate                 : 1 144 Kbps\n\nVideo\nID                               : 0\nFormat                           : MPEG-4 Visual\nFormat profile                   : Advanced Simple@L5\nFormat settings, BVOP            : 2\nFormat settings, QPel            : No\nFormat settings, GMC             : No warppoints\nFormat settings, Matrix          : Default (H.263)\nCodec ID                         : XVID\nCodec ID/Hint                    : XviD\nDuration                         : 1h 25mn\nBit rate                         : 1 002 Kbps\nWidth                            : 624 pixels\nHeight                           : 352 pixels\nDisplay aspect ratio             : 16:9\nFrame rate                       : 29.970 fps\nColor space                      : YUV\nChroma subsampling               : 4:2:0\nBit depth                        : 8 bits\nScan type                        : Progressive\nCompression mode                 : Lossy\nBits/(Pixel*Frame)               : 0.152\nStream size                      : 615 MiB (88%)\nWriting library                  : XviD 63\n\nAudio\nID                               : 1\nFormat                           : MPEG Audio\nFormat version                   : Version 1\nFormat profile                   : Layer 3\nCodec ID                         : 55\nCodec ID/Hint                    : MP3\nDuration                         : 1h 25mn\nBit rate mode                    : Constant\nBit rate                         : 128 Kbps\nChannel(s)                       : 2 channels\nSampling rate                    : 48.0 KHz\nCompression mode                 : Lossy\nStream size                      : 78.5 MiB (11%)\nAlignment                        : Split accross interleaves\nInterleave, duration             : 24 ms (0.72 video frame)","torrent":{"xt":"urn:btih:ac3bfa1379ec90aa73aeea37333184e6c6560169","amp;dn":"12.Dates.of.Christmas.2011.HDTV.XviD-NoGRP","amp;tr":["udp%3A%2F%2Ftracker.openbittorrent.com%3A80","udp%3A%2F%2Fopen.demonii.com%3A1337","udp%3A%2F%2Ftracker.coppersurfer.tk%3A6969","udp%3A%2F%2Fexodus.desync.com%3A6969"],"infoHash":"ac3bfa1379ec90aa73aeea37333184e6c6560169","infoHashBuffer":{"type":"Buffer","data":[172,59,250,19,121,236,144,170,115,174,234,55,51,49,132,230,198,86,1,105]},"announce":[],"urlList":[]}}